<mxfile host="app.diagrams.net" agent="Mozilla/5.0 (Windows NT 10.0; Win64; x64) AppleWebKit/537.36 (KHTML, like Gecko) Chrome/136.0.0.0 Safari/537.36" version="26.2.14">
  <diagram name="PÃ¡gina-1" id="oui6HEreBIWzsRnfgMn0">
    <mxGraphModel grid="1" page="1" gridSize="10" guides="1" tooltips="1" connect="1" arrows="1" fold="1" pageScale="1" pageWidth="827" pageHeight="1169" math="0" shadow="0">
      <root>
        <mxCell id="0" />
        <mxCell id="1" parent="0" />
        <mxCell id="NLt_7zbpXyPBar5l7_Vq-27" style="edgeStyle=orthogonalEdgeStyle;rounded=0;orthogonalLoop=1;jettySize=auto;html=1;exitX=0.5;exitY=1;exitDx=0;exitDy=0;entryX=0.5;entryY=0;entryDx=0;entryDy=0;" edge="1" parent="1" source="NLt_7zbpXyPBar5l7_Vq-1" target="NLt_7zbpXyPBar5l7_Vq-26">
          <mxGeometry relative="1" as="geometry" />
        </mxCell>
        <mxCell id="NLt_7zbpXyPBar5l7_Vq-1" value="users" style="rounded=0;whiteSpace=wrap;html=1;" vertex="1" parent="1">
          <mxGeometry x="283" y="130" width="100" height="30" as="geometry" />
        </mxCell>
        <mxCell id="NLt_7zbpXyPBar5l7_Vq-2" value="receitas" style="rounded=0;whiteSpace=wrap;html=1;" vertex="1" parent="1">
          <mxGeometry x="528" y="270.01" width="100" height="30" as="geometry" />
        </mxCell>
        <mxCell id="NLt_7zbpXyPBar5l7_Vq-28" style="edgeStyle=orthogonalEdgeStyle;rounded=0;orthogonalLoop=1;jettySize=auto;html=1;exitX=0.75;exitY=0;exitDx=0;exitDy=0;" edge="1" parent="1" source="NLt_7zbpXyPBar5l7_Vq-3">
          <mxGeometry relative="1" as="geometry">
            <mxPoint x="359.0952380952381" y="279.80952380952374" as="targetPoint" />
          </mxGeometry>
        </mxCell>
        <mxCell id="NLt_7zbpXyPBar5l7_Vq-36" value="" style="edgeStyle=orthogonalEdgeStyle;rounded=0;orthogonalLoop=1;jettySize=auto;html=1;" edge="1" parent="1" source="NLt_7zbpXyPBar5l7_Vq-3" target="NLt_7zbpXyPBar5l7_Vq-35">
          <mxGeometry relative="1" as="geometry" />
        </mxCell>
        <mxCell id="NLt_7zbpXyPBar5l7_Vq-3" value="folders" style="rounded=0;whiteSpace=wrap;html=1;" vertex="1" parent="1">
          <mxGeometry x="284" y="270" width="100" height="30" as="geometry" />
        </mxCell>
        <mxCell id="NLt_7zbpXyPBar5l7_Vq-6" value="ID" style="ellipse;whiteSpace=wrap;html=1;" vertex="1" parent="1">
          <mxGeometry x="10" y="30.020000000000003" width="50" height="30" as="geometry" />
        </mxCell>
        <mxCell id="NLt_7zbpXyPBar5l7_Vq-7" value="first_name" style="ellipse;whiteSpace=wrap;html=1;" vertex="1" parent="1">
          <mxGeometry x="65" y="30.02" width="80" height="30" as="geometry" />
        </mxCell>
        <mxCell id="NLt_7zbpXyPBar5l7_Vq-8" value="avatar" style="ellipse;whiteSpace=wrap;html=1;" vertex="1" parent="1">
          <mxGeometry x="238" y="30.020000000000003" width="50" height="30" as="geometry" />
        </mxCell>
        <mxCell id="NLt_7zbpXyPBar5l7_Vq-9" value="ingredients" style="ellipse;whiteSpace=wrap;html=1;" vertex="1" parent="1">
          <mxGeometry x="708" y="230.01" width="80" height="30" as="geometry" />
        </mxCell>
        <mxCell id="NLt_7zbpXyPBar5l7_Vq-10" value="directions" style="ellipse;whiteSpace=wrap;html=1;" vertex="1" parent="1">
          <mxGeometry x="708" y="270.01" width="80" height="30" as="geometry" />
        </mxCell>
        <mxCell id="NLt_7zbpXyPBar5l7_Vq-11" value="username" style="ellipse;whiteSpace=wrap;html=1;" vertex="1" parent="1">
          <mxGeometry x="294" y="30.01" width="70" height="30" as="geometry" />
        </mxCell>
        <mxCell id="NLt_7zbpXyPBar5l7_Vq-12" value="e-mail" style="ellipse;whiteSpace=wrap;html=1;" vertex="1" parent="1">
          <mxGeometry x="368" y="30.01" width="60" height="30" as="geometry" />
        </mxCell>
        <mxCell id="NLt_7zbpXyPBar5l7_Vq-13" value="password" style="ellipse;whiteSpace=wrap;html=1;" vertex="1" parent="1">
          <mxGeometry x="433" y="30.01" width="70" height="30" as="geometry" />
        </mxCell>
        <mxCell id="NLt_7zbpXyPBar5l7_Vq-15" value="formations" style="ellipse;whiteSpace=wrap;html=1;" vertex="1" parent="1">
          <mxGeometry x="509" y="30.020000000000003" width="70" height="30" as="geometry" />
        </mxCell>
        <mxCell id="NLt_7zbpXyPBar5l7_Vq-17" value="description" style="ellipse;whiteSpace=wrap;html=1;" vertex="1" parent="1">
          <mxGeometry x="586" y="30.020000000000003" width="70" height="30" as="geometry" />
        </mxCell>
        <mxCell id="NLt_7zbpXyPBar5l7_Vq-18" value="" style="endArrow=none;html=1;rounded=0;exitX=0.5;exitY=0;exitDx=0;exitDy=0;entryX=0.5;entryY=1;entryDx=0;entryDy=0;" edge="1" parent="1" source="NLt_7zbpXyPBar5l7_Vq-1" target="NLt_7zbpXyPBar5l7_Vq-6">
          <mxGeometry width="50" height="50" relative="1" as="geometry">
            <mxPoint x="30" y="150" as="sourcePoint" />
            <mxPoint x="80" y="100" as="targetPoint" />
          </mxGeometry>
        </mxCell>
        <mxCell id="NLt_7zbpXyPBar5l7_Vq-19" value="" style="endArrow=none;html=1;rounded=0;exitX=0.5;exitY=0;exitDx=0;exitDy=0;entryX=0.5;entryY=1;entryDx=0;entryDy=0;" edge="1" parent="1" source="NLt_7zbpXyPBar5l7_Vq-1" target="NLt_7zbpXyPBar5l7_Vq-75">
          <mxGeometry width="50" height="50" relative="1" as="geometry">
            <mxPoint x="368" y="130" as="sourcePoint" />
            <mxPoint x="143" y="60" as="targetPoint" />
          </mxGeometry>
        </mxCell>
        <mxCell id="NLt_7zbpXyPBar5l7_Vq-20" value="" style="endArrow=none;html=1;rounded=0;exitX=0.47;exitY=0;exitDx=0;exitDy=0;entryX=0.5;entryY=1;entryDx=0;entryDy=0;exitPerimeter=0;" edge="1" parent="1" source="NLt_7zbpXyPBar5l7_Vq-1" target="NLt_7zbpXyPBar5l7_Vq-8">
          <mxGeometry width="50" height="50" relative="1" as="geometry">
            <mxPoint x="368" y="130" as="sourcePoint" />
            <mxPoint x="203" y="60" as="targetPoint" />
          </mxGeometry>
        </mxCell>
        <mxCell id="NLt_7zbpXyPBar5l7_Vq-21" value="" style="endArrow=none;html=1;rounded=0;exitX=0.47;exitY=0;exitDx=0;exitDy=0;entryX=0.5;entryY=1;entryDx=0;entryDy=0;exitPerimeter=0;" edge="1" parent="1" source="NLt_7zbpXyPBar5l7_Vq-1" target="NLt_7zbpXyPBar5l7_Vq-11">
          <mxGeometry width="50" height="50" relative="1" as="geometry">
            <mxPoint x="378" y="130" as="sourcePoint" />
            <mxPoint x="273" y="60" as="targetPoint" />
          </mxGeometry>
        </mxCell>
        <mxCell id="NLt_7zbpXyPBar5l7_Vq-22" value="" style="endArrow=none;html=1;rounded=0;exitX=0.5;exitY=0;exitDx=0;exitDy=0;entryX=0.5;entryY=1;entryDx=0;entryDy=0;" edge="1" parent="1" source="NLt_7zbpXyPBar5l7_Vq-1" target="NLt_7zbpXyPBar5l7_Vq-12">
          <mxGeometry width="50" height="50" relative="1" as="geometry">
            <mxPoint x="391" y="130" as="sourcePoint" />
            <mxPoint x="334" y="60" as="targetPoint" />
          </mxGeometry>
        </mxCell>
        <mxCell id="NLt_7zbpXyPBar5l7_Vq-23" value="" style="endArrow=none;html=1;rounded=0;exitX=0.5;exitY=0;exitDx=0;exitDy=0;entryX=0.5;entryY=1;entryDx=0;entryDy=0;" edge="1" parent="1" source="NLt_7zbpXyPBar5l7_Vq-1" target="NLt_7zbpXyPBar5l7_Vq-13">
          <mxGeometry width="50" height="50" relative="1" as="geometry">
            <mxPoint x="412.5" y="130" as="sourcePoint" />
            <mxPoint x="413.5" y="60" as="targetPoint" />
          </mxGeometry>
        </mxCell>
        <mxCell id="NLt_7zbpXyPBar5l7_Vq-24" value="" style="endArrow=none;html=1;rounded=0;exitX=0.5;exitY=0;exitDx=0;exitDy=0;entryX=0.5;entryY=1;entryDx=0;entryDy=0;" edge="1" parent="1" source="NLt_7zbpXyPBar5l7_Vq-1" target="NLt_7zbpXyPBar5l7_Vq-15">
          <mxGeometry width="50" height="50" relative="1" as="geometry">
            <mxPoint x="400" y="130" as="sourcePoint" />
            <mxPoint x="480.5" y="60" as="targetPoint" />
          </mxGeometry>
        </mxCell>
        <mxCell id="NLt_7zbpXyPBar5l7_Vq-25" value="" style="endArrow=none;html=1;rounded=0;exitX=0.5;exitY=0;exitDx=0;exitDy=0;entryX=0.301;entryY=0.938;entryDx=0;entryDy=0;entryPerimeter=0;" edge="1" parent="1" source="NLt_7zbpXyPBar5l7_Vq-1" target="NLt_7zbpXyPBar5l7_Vq-17">
          <mxGeometry width="50" height="50" relative="1" as="geometry">
            <mxPoint x="431.75" y="130" as="sourcePoint" />
            <mxPoint x="554.25" y="60" as="targetPoint" />
          </mxGeometry>
        </mxCell>
        <mxCell id="NLt_7zbpXyPBar5l7_Vq-29" style="edgeStyle=orthogonalEdgeStyle;rounded=0;orthogonalLoop=1;jettySize=auto;html=1;exitX=0.5;exitY=1;exitDx=0;exitDy=0;" edge="1" parent="1" source="NLt_7zbpXyPBar5l7_Vq-26" target="NLt_7zbpXyPBar5l7_Vq-3">
          <mxGeometry relative="1" as="geometry" />
        </mxCell>
        <mxCell id="NLt_7zbpXyPBar5l7_Vq-26" value="cria" style="rhombus;whiteSpace=wrap;html=1;" vertex="1" parent="1">
          <mxGeometry x="294" y="190" width="80" height="50" as="geometry" />
        </mxCell>
        <mxCell id="NLt_7zbpXyPBar5l7_Vq-30" value="ID" style="ellipse;whiteSpace=wrap;html=1;" vertex="1" parent="1">
          <mxGeometry x="165" y="210.01" width="50" height="30" as="geometry" />
        </mxCell>
        <mxCell id="NLt_7zbpXyPBar5l7_Vq-31" value="name" style="ellipse;whiteSpace=wrap;html=1;" vertex="1" parent="1">
          <mxGeometry x="165" y="250.01" width="50" height="30" as="geometry" />
        </mxCell>
        <mxCell id="NLt_7zbpXyPBar5l7_Vq-32" value="recipes" style="ellipse;whiteSpace=wrap;html=1;" vertex="1" parent="1">
          <mxGeometry x="159" y="330.01" width="62" height="30" as="geometry" />
        </mxCell>
        <mxCell id="NLt_7zbpXyPBar5l7_Vq-34" value="description" style="ellipse;whiteSpace=wrap;html=1;" vertex="1" parent="1">
          <mxGeometry x="149" y="290.01" width="82" height="30" as="geometry" />
        </mxCell>
        <mxCell id="NLt_7zbpXyPBar5l7_Vq-37" style="edgeStyle=orthogonalEdgeStyle;rounded=0;orthogonalLoop=1;jettySize=auto;html=1;exitX=1;exitY=0.5;exitDx=0;exitDy=0;entryX=0;entryY=0.5;entryDx=0;entryDy=0;" edge="1" parent="1" source="NLt_7zbpXyPBar5l7_Vq-35" target="NLt_7zbpXyPBar5l7_Vq-2">
          <mxGeometry relative="1" as="geometry">
            <mxPoint x="538" y="284.9310344827586" as="targetPoint" />
          </mxGeometry>
        </mxCell>
        <mxCell id="NLt_7zbpXyPBar5l7_Vq-35" value="tem" style="rhombus;whiteSpace=wrap;html=1;rounded=0;" vertex="1" parent="1">
          <mxGeometry x="420" y="258.13" width="80" height="53.75" as="geometry" />
        </mxCell>
        <mxCell id="NLt_7zbpXyPBar5l7_Vq-38" value="" style="endArrow=none;html=1;rounded=0;exitX=1;exitY=0.5;exitDx=0;exitDy=0;entryX=0;entryY=0.5;entryDx=0;entryDy=0;" edge="1" parent="1" source="NLt_7zbpXyPBar5l7_Vq-34" target="NLt_7zbpXyPBar5l7_Vq-3">
          <mxGeometry width="50" height="50" relative="1" as="geometry">
            <mxPoint x="258" y="285" as="sourcePoint" />
            <mxPoint x="284" y="284.71999999999997" as="targetPoint" />
          </mxGeometry>
        </mxCell>
        <mxCell id="NLt_7zbpXyPBar5l7_Vq-39" value="" style="endArrow=none;html=1;rounded=0;exitX=1;exitY=0.5;exitDx=0;exitDy=0;entryX=0;entryY=0.5;entryDx=0;entryDy=0;" edge="1" parent="1" source="NLt_7zbpXyPBar5l7_Vq-31" target="NLt_7zbpXyPBar5l7_Vq-3">
          <mxGeometry width="50" height="50" relative="1" as="geometry">
            <mxPoint x="260" y="269.85" as="sourcePoint" />
            <mxPoint x="284" y="269.85" as="targetPoint" />
          </mxGeometry>
        </mxCell>
        <mxCell id="NLt_7zbpXyPBar5l7_Vq-40" value="" style="endArrow=none;html=1;rounded=0;exitX=1.013;exitY=0.465;exitDx=0;exitDy=0;entryX=0;entryY=0.5;entryDx=0;entryDy=0;exitPerimeter=0;" edge="1" parent="1" source="NLt_7zbpXyPBar5l7_Vq-32" target="NLt_7zbpXyPBar5l7_Vq-3">
          <mxGeometry width="50" height="50" relative="1" as="geometry">
            <mxPoint x="250" y="300" as="sourcePoint" />
            <mxPoint x="290" y="340" as="targetPoint" />
          </mxGeometry>
        </mxCell>
        <mxCell id="NLt_7zbpXyPBar5l7_Vq-43" value="" style="endArrow=none;html=1;rounded=0;exitX=1;exitY=0.5;exitDx=0;exitDy=0;entryX=0;entryY=0.5;entryDx=0;entryDy=0;" edge="1" parent="1" source="NLt_7zbpXyPBar5l7_Vq-30" target="NLt_7zbpXyPBar5l7_Vq-3">
          <mxGeometry width="50" height="50" relative="1" as="geometry">
            <mxPoint x="250" y="230" as="sourcePoint" />
            <mxPoint x="290" y="270" as="targetPoint" />
          </mxGeometry>
        </mxCell>
        <mxCell id="NLt_7zbpXyPBar5l7_Vq-45" value="ID" style="ellipse;whiteSpace=wrap;html=1;" vertex="1" parent="1">
          <mxGeometry x="723" y="30.009999999999998" width="50" height="30" as="geometry" />
        </mxCell>
        <mxCell id="NLt_7zbpXyPBar5l7_Vq-46" value="name" style="ellipse;whiteSpace=wrap;html=1;" vertex="1" parent="1">
          <mxGeometry x="723" y="70.00999999999999" width="50" height="30" as="geometry" />
        </mxCell>
        <mxCell id="NLt_7zbpXyPBar5l7_Vq-47" value="image" style="ellipse;whiteSpace=wrap;html=1;" vertex="1" parent="1">
          <mxGeometry x="723" y="110.00999999999999" width="50" height="30" as="geometry" />
        </mxCell>
        <mxCell id="NLt_7zbpXyPBar5l7_Vq-48" value="category" style="ellipse;whiteSpace=wrap;html=1;" vertex="1" parent="1">
          <mxGeometry x="718" y="190.01" width="60" height="30" as="geometry" />
        </mxCell>
        <mxCell id="NLt_7zbpXyPBar5l7_Vq-49" value="tipe" style="ellipse;whiteSpace=wrap;html=1;" vertex="1" parent="1">
          <mxGeometry x="723" y="150.01" width="50" height="30" as="geometry" />
        </mxCell>
        <mxCell id="NLt_7zbpXyPBar5l7_Vq-50" value="prep_time" style="ellipse;whiteSpace=wrap;html=1;" vertex="1" parent="1">
          <mxGeometry x="713" y="310.01" width="70" height="30" as="geometry" />
        </mxCell>
        <mxCell id="NLt_7zbpXyPBar5l7_Vq-51" value="yield" style="ellipse;whiteSpace=wrap;html=1;" vertex="1" parent="1">
          <mxGeometry x="723" y="475" width="50" height="30" as="geometry" />
        </mxCell>
        <mxCell id="NLt_7zbpXyPBar5l7_Vq-52" value="cook_time" style="ellipse;whiteSpace=wrap;html=1;" vertex="1" parent="1">
          <mxGeometry x="713" y="350.01" width="70" height="30" as="geometry" />
        </mxCell>
        <mxCell id="NLt_7zbpXyPBar5l7_Vq-55" value="servings" style="ellipse;whiteSpace=wrap;html=1;" vertex="1" parent="1">
          <mxGeometry x="713" y="430" width="67" height="35" as="geometry" />
        </mxCell>
        <mxCell id="NLt_7zbpXyPBar5l7_Vq-56" value="score" style="ellipse;whiteSpace=wrap;html=1;" vertex="1" parent="1">
          <mxGeometry x="718" y="515" width="59.98" height="29.99" as="geometry" />
        </mxCell>
        <mxCell id="NLt_7zbpXyPBar5l7_Vq-57" value="author" style="ellipse;whiteSpace=wrap;html=1;" vertex="1" parent="1">
          <mxGeometry x="718" y="554.99" width="60" height="30" as="geometry" />
        </mxCell>
        <mxCell id="NLt_7zbpXyPBar5l7_Vq-58" value="" style="endArrow=none;html=1;rounded=0;exitX=1;exitY=0.5;exitDx=0;exitDy=0;entryX=0;entryY=0.5;entryDx=0;entryDy=0;" edge="1" parent="1" source="NLt_7zbpXyPBar5l7_Vq-2" target="NLt_7zbpXyPBar5l7_Vq-45">
          <mxGeometry width="50" height="50" relative="1" as="geometry">
            <mxPoint x="632" y="265.01" as="sourcePoint" />
            <mxPoint x="678" y="185" as="targetPoint" />
          </mxGeometry>
        </mxCell>
        <mxCell id="NLt_7zbpXyPBar5l7_Vq-59" value="" style="endArrow=none;html=1;rounded=0;exitX=1;exitY=0.5;exitDx=0;exitDy=0;entryX=0;entryY=0.5;entryDx=0;entryDy=0;" edge="1" parent="1" source="NLt_7zbpXyPBar5l7_Vq-2" target="NLt_7zbpXyPBar5l7_Vq-46">
          <mxGeometry width="50" height="50" relative="1" as="geometry">
            <mxPoint x="638" y="295" as="sourcePoint" />
            <mxPoint x="703" y="75" as="targetPoint" />
          </mxGeometry>
        </mxCell>
        <mxCell id="NLt_7zbpXyPBar5l7_Vq-60" value="" style="endArrow=none;html=1;rounded=0;exitX=1;exitY=0.5;exitDx=0;exitDy=0;entryX=0;entryY=0.5;entryDx=0;entryDy=0;" edge="1" parent="1" source="NLt_7zbpXyPBar5l7_Vq-2" target="NLt_7zbpXyPBar5l7_Vq-47">
          <mxGeometry width="50" height="50" relative="1" as="geometry">
            <mxPoint x="638" y="295" as="sourcePoint" />
            <mxPoint x="703" y="115" as="targetPoint" />
          </mxGeometry>
        </mxCell>
        <mxCell id="NLt_7zbpXyPBar5l7_Vq-61" value="" style="endArrow=none;html=1;rounded=0;exitX=1;exitY=0.5;exitDx=0;exitDy=0;entryX=0;entryY=0.5;entryDx=0;entryDy=0;" edge="1" parent="1" source="NLt_7zbpXyPBar5l7_Vq-2" target="NLt_7zbpXyPBar5l7_Vq-49">
          <mxGeometry width="50" height="50" relative="1" as="geometry">
            <mxPoint x="638" y="295" as="sourcePoint" />
            <mxPoint x="703" y="155" as="targetPoint" />
          </mxGeometry>
        </mxCell>
        <mxCell id="NLt_7zbpXyPBar5l7_Vq-62" value="" style="endArrow=none;html=1;rounded=0;exitX=1;exitY=0.5;exitDx=0;exitDy=0;entryX=0;entryY=0.5;entryDx=0;entryDy=0;" edge="1" parent="1" source="NLt_7zbpXyPBar5l7_Vq-2" target="NLt_7zbpXyPBar5l7_Vq-48">
          <mxGeometry width="50" height="50" relative="1" as="geometry">
            <mxPoint x="598" y="400" as="sourcePoint" />
            <mxPoint x="663" y="300" as="targetPoint" />
          </mxGeometry>
        </mxCell>
        <mxCell id="NLt_7zbpXyPBar5l7_Vq-63" value="" style="endArrow=none;html=1;rounded=0;exitX=1;exitY=0.5;exitDx=0;exitDy=0;entryX=0;entryY=0.5;entryDx=0;entryDy=0;" edge="1" parent="1" source="NLt_7zbpXyPBar5l7_Vq-2" target="NLt_7zbpXyPBar5l7_Vq-9">
          <mxGeometry width="50" height="50" relative="1" as="geometry">
            <mxPoint x="638" y="295" as="sourcePoint" />
            <mxPoint x="698" y="235" as="targetPoint" />
          </mxGeometry>
        </mxCell>
        <mxCell id="NLt_7zbpXyPBar5l7_Vq-64" value="" style="endArrow=none;html=1;rounded=0;exitX=1;exitY=0.5;exitDx=0;exitDy=0;entryX=0.023;entryY=0.348;entryDx=0;entryDy=0;entryPerimeter=0;" edge="1" parent="1" source="NLt_7zbpXyPBar5l7_Vq-2" target="NLt_7zbpXyPBar5l7_Vq-10">
          <mxGeometry width="50" height="50" relative="1" as="geometry">
            <mxPoint x="638" y="295" as="sourcePoint" />
            <mxPoint x="688" y="275" as="targetPoint" />
          </mxGeometry>
        </mxCell>
        <mxCell id="NLt_7zbpXyPBar5l7_Vq-65" value="" style="endArrow=none;html=1;rounded=0;exitX=1;exitY=0.5;exitDx=0;exitDy=0;entryX=0;entryY=0.5;entryDx=0;entryDy=0;" edge="1" parent="1" source="NLt_7zbpXyPBar5l7_Vq-2" target="NLt_7zbpXyPBar5l7_Vq-50">
          <mxGeometry width="50" height="50" relative="1" as="geometry">
            <mxPoint x="638" y="295" as="sourcePoint" />
            <mxPoint x="690" y="310" as="targetPoint" />
          </mxGeometry>
        </mxCell>
        <mxCell id="NLt_7zbpXyPBar5l7_Vq-66" value="" style="endArrow=none;html=1;rounded=0;exitX=1;exitY=0.5;exitDx=0;exitDy=0;entryX=0;entryY=0.5;entryDx=0;entryDy=0;" edge="1" parent="1" source="NLt_7zbpXyPBar5l7_Vq-2" target="NLt_7zbpXyPBar5l7_Vq-52">
          <mxGeometry width="50" height="50" relative="1" as="geometry">
            <mxPoint x="628" y="320.01" as="sourcePoint" />
            <mxPoint x="683" y="380.01" as="targetPoint" />
          </mxGeometry>
        </mxCell>
        <mxCell id="NLt_7zbpXyPBar5l7_Vq-67" value="" style="endArrow=none;html=1;rounded=0;exitX=1;exitY=0.5;exitDx=0;exitDy=0;entryX=0;entryY=0.5;entryDx=0;entryDy=0;" edge="1" parent="1" source="NLt_7zbpXyPBar5l7_Vq-2" target="NLt_7zbpXyPBar5l7_Vq-55">
          <mxGeometry width="50" height="50" relative="1" as="geometry">
            <mxPoint x="608" y="300.01" as="sourcePoint" />
            <mxPoint x="663" y="400.01" as="targetPoint" />
          </mxGeometry>
        </mxCell>
        <mxCell id="NLt_7zbpXyPBar5l7_Vq-68" value="" style="endArrow=none;html=1;rounded=0;exitX=1;exitY=0.5;exitDx=0;exitDy=0;entryX=0;entryY=0.5;entryDx=0;entryDy=0;" edge="1" parent="1" source="NLt_7zbpXyPBar5l7_Vq-2" target="NLt_7zbpXyPBar5l7_Vq-51">
          <mxGeometry width="50" height="50" relative="1" as="geometry">
            <mxPoint x="608" y="295.01" as="sourcePoint" />
            <mxPoint x="663" y="435.01" as="targetPoint" />
          </mxGeometry>
        </mxCell>
        <mxCell id="NLt_7zbpXyPBar5l7_Vq-69" value="" style="endArrow=none;html=1;rounded=0;exitX=1;exitY=0.5;exitDx=0;exitDy=0;entryX=0;entryY=0.5;entryDx=0;entryDy=0;" edge="1" parent="1" source="NLt_7zbpXyPBar5l7_Vq-2" target="NLt_7zbpXyPBar5l7_Vq-56">
          <mxGeometry width="50" height="50" relative="1" as="geometry">
            <mxPoint x="598" y="300.01" as="sourcePoint" />
            <mxPoint x="663" y="480.01" as="targetPoint" />
          </mxGeometry>
        </mxCell>
        <mxCell id="NLt_7zbpXyPBar5l7_Vq-70" value="" style="endArrow=none;html=1;rounded=0;exitX=1;exitY=0.5;exitDx=0;exitDy=0;entryX=0;entryY=0.5;entryDx=0;entryDy=0;" edge="1" parent="1" source="NLt_7zbpXyPBar5l7_Vq-2" target="NLt_7zbpXyPBar5l7_Vq-57">
          <mxGeometry width="50" height="50" relative="1" as="geometry">
            <mxPoint x="588" y="300.01" as="sourcePoint" />
            <mxPoint x="648" y="520.01" as="targetPoint" />
          </mxGeometry>
        </mxCell>
        <mxCell id="NLt_7zbpXyPBar5l7_Vq-71" value="N" style="text;html=1;align=center;verticalAlign=middle;whiteSpace=wrap;rounded=0;" vertex="1" parent="1">
          <mxGeometry x="314" y="160" width="60" height="30" as="geometry" />
        </mxCell>
        <mxCell id="NLt_7zbpXyPBar5l7_Vq-72" value="1" style="text;html=1;align=center;verticalAlign=middle;whiteSpace=wrap;rounded=0;" vertex="1" parent="1">
          <mxGeometry x="332" y="250.01" width="24" height="19.99" as="geometry" />
        </mxCell>
        <mxCell id="NLt_7zbpXyPBar5l7_Vq-73" value="N" style="text;html=1;align=center;verticalAlign=middle;whiteSpace=wrap;rounded=0;" vertex="1" parent="1">
          <mxGeometry x="364" y="260.01" width="60" height="30" as="geometry" />
        </mxCell>
        <mxCell id="NLt_7zbpXyPBar5l7_Vq-74" value="N" style="text;html=1;align=center;verticalAlign=middle;whiteSpace=wrap;rounded=0;" vertex="1" parent="1">
          <mxGeometry x="487" y="258.13" width="60" height="30" as="geometry" />
        </mxCell>
        <mxCell id="NLt_7zbpXyPBar5l7_Vq-75" value="last_name" style="ellipse;whiteSpace=wrap;html=1;" vertex="1" parent="1">
          <mxGeometry x="151" y="30.019999999999992" width="80" height="30" as="geometry" />
        </mxCell>
        <mxCell id="NLt_7zbpXyPBar5l7_Vq-76" value="" style="endArrow=none;html=1;rounded=0;exitX=0.5;exitY=0;exitDx=0;exitDy=0;entryX=0.5;entryY=1;entryDx=0;entryDy=0;" edge="1" parent="1" source="NLt_7zbpXyPBar5l7_Vq-1" target="NLt_7zbpXyPBar5l7_Vq-7">
          <mxGeometry width="50" height="50" relative="1" as="geometry">
            <mxPoint x="343" y="140" as="sourcePoint" />
            <mxPoint x="63" y="70" as="targetPoint" />
          </mxGeometry>
        </mxCell>
        <mxCell id="NLt_7zbpXyPBar5l7_Vq-77" value="total_time" style="ellipse;whiteSpace=wrap;html=1;" vertex="1" parent="1">
          <mxGeometry x="711.5" y="390" width="70" height="30" as="geometry" />
        </mxCell>
        <mxCell id="NLt_7zbpXyPBar5l7_Vq-78" value="" style="endArrow=none;html=1;rounded=0;exitX=1;exitY=0.5;exitDx=0;exitDy=0;entryX=0;entryY=0.5;entryDx=0;entryDy=0;" edge="1" parent="1" target="NLt_7zbpXyPBar5l7_Vq-77">
          <mxGeometry width="50" height="50" relative="1" as="geometry">
            <mxPoint x="628" y="283.51" as="sourcePoint" />
            <mxPoint x="713" y="446.51" as="targetPoint" />
          </mxGeometry>
        </mxCell>
      </root>
    </mxGraphModel>
  </diagram>
</mxfile>
